<svg class="logo_svg__dKTMT logo_small__QX6_S" fill="none" height="42" viewBox="0 0 139 42" width="149" xmlns="http://www.w3.org/2000/svg"><path d="M7.62755 12.5764C12.0176 8.83266 19.8819 8.9721 24.3555 13.7078C26.3132 15.7803 27.429 18.2579 27.8384 21.0626C28.2769 24.0662 28.003 26.9998 26.7214 29.7721C24.8341 33.8549 21.6323 36.2313 17.1955 36.8889C14.6019 37.2735 12.1051 36.9378 9.76167 35.6987C8.85259 35.2182 8.0495 34.597 7.33725 33.7954C7.2892 33.96 7.25234 34.0908 7.21284 34.221C6.76719 35.6927 5.53293 36.5697 3.95703 36.534C2.33703 36.4977 1.1133 35.5374 0.744012 33.9785C0.651196 33.5866 0.604458 33.1742 0.6038 32.7704C0.595901 23.4172 0.597876 14.064 0.597876 4.71086C0.597876 3.82332 0.760469 2.97412 1.28379 2.24122C2.18826 0.975008 3.46794 0.634003 4.91942 0.919495C6.34985 1.20102 7.17334 2.16126 7.49392 3.557C7.58871 3.9707 7.62031 4.40686 7.62229 4.83312C7.63413 7.27567 7.62821 9.71887 7.62821 12.1614C7.62755 12.2784 7.62755 12.3954 7.62755 12.5764ZM21.0648 23.3108C21.051 23.1152 21.0385 22.7299 20.9937 22.3479C20.7884 20.5881 20.1591 19.0271 18.807 17.8296C17.632 16.7894 16.2233 16.3381 14.6836 16.2455C11.4686 16.0532 8.7578 17.7391 7.75394 20.781C7.1299 22.6704 7.15096 24.5704 7.83425 26.44C8.52214 28.3208 9.81104 29.6333 11.695 30.3219C12.8483 30.7435 14.045 30.8334 15.2589 30.6755C17.5484 30.3768 19.2868 29.2711 20.3085 27.1491C20.8621 25.9999 21.0517 24.7667 21.0648 23.3108Z" fill="var(--white)" data-svg-origin="0.5976565480232239 0.8251950740814209" transform="matrix(1,0,0,1,0,0)" style="transform-origin: 0px 0px; transform: matrix(1, 0, 0, 1, 0, 0); opacity: 1; visibility: inherit;"></path><path d="M58.8197 23.2699C58.8078 30.1646 54.2539 35.5963 47.6593 36.7561C44.0257 37.3951 40.525 37.0026 37.2824 35.1647C33.4499 32.9931 31.2296 29.6677 30.668 25.2901C30.1625 21.3514 31.0874 17.7682 33.6487 14.6919C35.7242 12.1998 38.4198 10.7208 41.5795 10.1141C45.0519 9.44729 48.4308 9.78235 51.5879 11.4332C55.7442 13.6068 58.1015 17.0849 58.7117 21.7506C58.7315 21.9032 58.7532 22.0559 58.7624 22.2092C58.7874 22.6262 58.8078 23.0439 58.8197 23.2699ZM37.5885 23.4384C37.5885 23.7133 37.5727 23.9896 37.5924 24.2625C37.6135 24.5579 37.6543 24.8533 37.7102 25.1441C38.1954 27.6739 39.5593 29.4886 42.0344 30.3279C43.7413 30.9068 45.4844 30.9048 47.2064 30.3629C49.2484 29.7205 50.6295 28.3618 51.3239 26.3356C51.9592 24.4806 51.9723 22.5932 51.3832 20.7275C50.6709 18.4733 49.1562 17.0075 46.8753 16.3857C45.2843 15.9522 43.6834 15.9826 42.1127 16.4914C40.3427 17.065 39.0557 18.2097 38.2757 19.912C37.7642 21.0315 37.5621 22.2145 37.5885 23.4384Z" fill="var(--white)" data-svg-origin="30.535133361816406 9.79199504852295" transform="matrix(1,0,0,1,0,0)" style="transform-origin: 0px 0px; transform: matrix(1, 0, 0, 1, 0, 0); opacity: 1; visibility: inherit;"></path><path d="M89.6383 23.4427C89.6172 29.9945 85.2634 35.366 78.8591 36.6778C75.3986 37.3869 72.0144 37.1285 68.8211 35.553C64.5648 33.4528 62.0811 29.9998 61.4617 25.2753C60.9667 21.5005 61.8178 18.0309 64.1823 15.0128C66.2743 12.3422 69.0535 10.7588 72.3567 10.1198C75.8758 9.4384 79.2942 9.78932 82.4822 11.4864C86.576 13.6659 88.8997 17.1216 89.5001 21.7337C89.5738 22.2994 89.5935 22.8731 89.6383 23.4427ZM68.3841 23.446C68.3841 23.7209 68.3682 23.9972 68.388 24.2701C68.4097 24.5655 68.4499 24.8609 68.5065 25.1517C68.9949 27.6802 70.3602 29.4942 72.8359 30.3309C74.5435 30.9078 76.2866 30.9052 78.008 30.3613C80.0493 29.7169 81.4283 28.3562 82.1208 26.33C82.7508 24.4856 82.7653 22.6094 82.1854 20.7537C81.4803 18.4975 79.9755 17.0251 77.6953 16.3953C76.0931 15.9525 74.4823 15.9823 72.9011 16.4951C71.1317 17.0694 69.8461 18.2166 69.068 19.9197C68.5572 21.0392 68.3557 22.2221 68.3841 23.446Z" fill="var(--white)" data-svg-origin="61.326202392578125 9.79298210144043" transform="matrix(1,0,0,1,0,0)" style="transform-origin: 0px 0px; transform: matrix(1, 0, 0, 1, 0, 0); opacity: 1; visibility: inherit;"></path><path d="M104.092 37.0856C100.261 36.9799 96.6185 35.8253 93.6167 33.0107C93.1105 32.5362 92.6478 31.9771 92.2976 31.3797C91.2792 29.6423 91.979 27.396 93.7412 26.6631C95.0551 26.1173 96.2979 26.2673 97.3919 27.2249C97.6796 27.4767 97.9521 27.7549 98.1898 28.0549C100.062 30.4168 102.546 31.268 105.468 31.0453C106.302 30.9819 107.124 30.851 107.863 30.4182C108.743 29.9034 109.112 29.0158 108.841 28.0886C108.677 27.5322 108.284 27.1773 107.795 26.9196C106.928 26.4642 105.982 26.268 105.028 26.1245C103.295 25.8642 101.554 25.6553 99.8216 25.3897C98.4755 25.1835 97.1635 24.8359 95.9253 24.2477C93.493 23.0918 92.2903 21.1344 92.1988 18.4652C92.1021 15.636 93.3758 13.5245 95.6508 11.9656C97.1918 10.9095 98.927 10.3471 100.76 10.0967C103.892 9.66842 106.899 10.1006 109.748 11.5043C111.13 12.185 112.361 13.0712 113.393 14.2244C114.345 15.2877 114.655 16.5083 114.162 17.8618C113.751 18.9905 112.88 19.582 111.703 19.7181C110.44 19.8642 109.413 19.3824 108.536 18.5041C107.849 17.8162 107.096 17.2122 106.212 16.7971C104.511 15.9982 102.741 15.7226 100.908 16.2262C100.488 16.3411 100.07 16.5731 99.7321 16.8507C98.9771 17.4732 99.0541 18.4447 99.8631 18.9958C100.531 19.4512 101.305 19.6336 102.08 19.7743C103.869 20.1001 105.666 20.377 107.453 20.7108C108.92 20.985 110.347 21.404 111.691 22.0794C114.745 23.6139 115.946 26.2752 115.631 29.5313C115.361 32.3188 113.771 34.2062 111.385 35.4863C109.575 36.4565 107.609 36.8655 105.58 37.0129C105.154 37.0446 104.726 37.0559 104.092 37.0856Z" fill="var(--white)" data-svg-origin="91.82617950439453 9.938494682312012" transform="matrix(1,0,0,1,0,0)" style="transform-origin: 0px 0px; transform: matrix(1, 0, 0, 1, 0, 0); opacity: 1; visibility: inherit;"></path><path d="M127.91 10.6677C128.059 10.6677 128.176 10.6677 128.294 10.6677C129.829 10.6684 131.365 10.6592 132.9 10.677C133.28 10.6816 133.67 10.7312 134.036 10.8297C135.603 11.2526 136.461 12.6728 136.188 14.3474C135.931 15.919 134.804 16.9043 133.141 16.9387C131.541 16.9724 129.939 16.9512 128.338 16.9539C128.209 16.9539 128.08 16.9539 127.91 16.9539C127.91 17.1045 127.91 17.2215 127.91 17.3385C127.91 21.19 127.909 25.0422 127.91 28.8937C127.911 30.3224 128.399 30.7903 129.827 30.7401C130.413 30.7196 130.913 30.483 131.345 30.1057C131.707 29.7878 132.04 29.4356 132.396 29.1091C133.788 27.8323 136.093 27.9724 137.326 29.4038C138.256 30.4837 138.337 32.1603 137.511 33.4318C137.049 34.1435 136.425 34.6954 135.737 35.1785C134.082 36.3403 132.216 36.8815 130.223 37.0024C128.661 37.0969 127.112 36.9938 125.608 36.4995C123.037 35.6536 121.565 33.8475 121.089 31.2139C120.949 30.4394 120.893 29.6404 120.889 28.8527C120.869 25.0342 120.879 21.2151 120.879 17.3966C120.879 17.2658 120.879 17.1343 120.879 16.9545C120.394 16.9545 119.926 16.971 119.46 16.9499C118.959 16.9268 118.445 16.9274 117.961 16.8138C116.387 16.4437 115.588 15.2462 115.681 13.4777C115.756 12.0503 116.774 10.9565 118.253 10.7418C118.631 10.6869 119.017 10.6803 119.4 10.6711C119.88 10.6598 120.36 10.6684 120.879 10.6684C120.879 10.525 120.879 10.408 120.879 10.2911C120.879 8.43139 120.859 6.57106 120.892 4.7114C120.902 4.14834 120.987 3.56282 121.167 3.03215C121.677 1.53001 123.037 0.719129 124.714 0.838745C126.267 0.94977 127.455 1.98798 127.777 3.55291C127.864 3.96991 127.9 4.40343 127.903 4.82969C127.916 6.63451 127.909 8.43932 127.909 10.2441C127.91 10.3737 127.91 10.5025 127.91 10.6677Z" fill="var(--white)" data-svg-origin="115.67371368408203 0.8271484375" transform="matrix(1,0,0,1,0,0)" style="transform-origin: 0px 0px; transform: matrix(1, 0, 0, 1, 0, 0); opacity: 1; visibility: inherit;"></path></svg>