<svg xmlns="http://www.w3.org/2000/svg" width="102" height="21" fill="none"><path d="M29.521 2.674c.241-.741 1.29-.741 1.53 0l1.298 3.996a.804.804 0 00.765.555h4.202c.779 0 1.103.997.472 1.455l-3.399 2.47a.804.804 0 00-.292.899l1.298 3.996c.241.74-.607 1.357-1.237.899l-3.4-2.47a.804.804 0 00-.944 0l-3.4 2.47c-.63.458-1.478-.158-1.237-.899l1.298-3.996a.804.804 0 00-.292-.9l-3.4-2.469c-.63-.458-.306-1.455.473-1.455h4.202a.804.804 0 00.765-.555l1.299-3.996z" fill="#000"></path><path d="M10.657 2.77l1.299 3.996a1.11 1.11 0 001.055.767h4.202c.483 0 .683.618.293.902l-3.4 2.47a1.11 1.11 0 00-.403 1.24l1.299 3.996a.499.499 0 01-.767.558l-3.4-2.47a1.11 1.11 0 00-1.304 0l-3.4 2.47a.498.498 0 01-.766-.558l1.298-3.996a1.11 1.11 0 00-.403-1.24l-3.4-2.47a.498.498 0 01.294-.902h4.201c.481 0 .907-.31 1.056-.767L9.709 2.77a.498.498 0 01.948 0z" fill="#000" stroke="#000" stroke-width="0.612"></path><path d="M49.813 2.674c.24-.741 1.289-.741 1.53 0L52.64 6.67a.804.804 0 00.765.555h4.202c.779 0 1.103.997.472 1.455l-3.4 2.47a.804.804 0 00-.291.899l1.298 3.996c.241.74-.607 1.357-1.237.899l-3.4-2.47a.804.804 0 00-.945 0l-3.399 2.47c-.63.458-1.478-.158-1.237-.899l1.298-3.996a.804.804 0 00-.292-.9l-3.4-2.469c-.63-.458-.306-1.455.473-1.455h4.202a.804.804 0 00.765-.555l1.298-3.996zm20.292.37c.24-.74 1.289-.74 1.53 0l1.298 3.997a.804.804 0 00.765.555H77.9c.778 0 1.102.997.472 1.455l-3.4 2.47a.804.804 0 00-.291.899l1.298 3.996c.24.74-.607 1.357-1.237.899l-3.4-2.47a.804.804 0 00-.945 0l-3.4 2.47c-.63.458-1.477-.158-1.237-.9l1.299-3.995a.804.804 0 00-.292-.9l-3.4-2.47c-.63-.457-.306-1.454.473-1.454h4.202a.804.804 0 00.765-.555l1.298-3.997zm20.292-.37c.24-.741 1.288-.741 1.53 0l1.298 3.996a.804.804 0 00.764.555h4.202c.78 0 1.103.997.473 1.455l-3.4 2.47a.804.804 0 00-.292.899l1.299 3.996c.24.74-.607 1.357-1.237.899l-3.4-2.47a.804.804 0 00-.945 0l-3.4 2.47c-.63.458-1.478-.158-1.237-.899l1.299-3.996a.804.804 0 00-.293-.9L83.66 8.68c-.63-.458-.306-1.455.473-1.455h4.202a.804.804 0 00.764-.555l1.299-3.996z" fill="#000"></path></svg>